<svg width="980" height="260" viewBox="0 0 980 260" fill="none" xmlns="http://www.w3.org/2000/svg" role="img" aria-labelledby="title desc">
  <title id="title">SGAD logo</title>
  <desc id="desc">Spec-Governed Agentic Development logo with a governed agent shield and evidence trail.</desc>
  <rect width="980" height="260" rx="28" fill="#0F172A"/>
  <circle cx="126" cy="130" r="78" fill="#111827" stroke="#38BDF8" stroke-width="4"/>
  <path d="M126 58L188 84V127C188 169 160 196 126 207C92 196 64 169 64 127V84L126 58Z" fill="#0B1220" stroke="#A7F3D0" stroke-width="5" stroke-linejoin="round"/>
  <circle cx="126" cy="118" r="24" fill="#38BDF8"/>
  <path d="M89 157C104 139 148 139 163 157" stroke="#A7F3D0" stroke-width="8" stroke-linecap="round"/>
  <path d="M218 96H315" stroke="#475569" stroke-width="6" stroke-linecap="round"/>
  <path d="M218 130H345" stroke="#38BDF8" stroke-width="6" stroke-linecap="round"/>
  <path d="M218 164H292" stroke="#A7F3D0" stroke-width="6" stroke-linecap="round"/>
  <text x="382" y="123" fill="#F8FAFC" font-family="Inter, Segoe UI, Arial, sans-serif" font-size="72" font-weight="800" letter-spacing="0">SGAD</text>
  <text x="386" y="164" fill="#CBD5E1" font-family="Inter, Segoe UI, Arial, sans-serif" font-size="24" font-weight="500">Spec-Governed Agentic Development</text>
  <g transform="translate(386 185)">
    <rect x="0" y="0" width="104" height="32" rx="16" fill="#0EA5E9" fill-opacity="0.16" stroke="#38BDF8"/>
    <text x="18" y="22" fill="#BAE6FD" font-family="Inter, Segoe UI, Arial, sans-serif" font-size="14" font-weight="700">SPEC</text>
    <rect x="120" y="0" width="128" height="32" rx="16" fill="#22C55E" fill-opacity="0.14" stroke="#86EFAC"/>
    <text x="140" y="22" fill="#BBF7D0" font-family="Inter, Segoe UI, Arial, sans-serif" font-size="14" font-weight="700">EXECUTION</text>
    <rect x="264" y="0" width="142" height="32" rx="16" fill="#F59E0B" fill-opacity="0.14" stroke="#FCD34D"/>
    <text x="282" y="22" fill="#FEF3C7" font-family="Inter, Segoe UI, Arial, sans-serif" font-size="14" font-weight="700">GOVERNANCE</text>
    <rect x="422" y="0" width="124" height="32" rx="16" fill="#A855F7" fill-opacity="0.14" stroke="#D8B4FE"/>
    <text x="442" y="22" fill="#E9D5FF" font-family="Inter, Segoe UI, Arial, sans-serif" font-size="14" font-weight="700">EVIDENCE</text>
  </g>
</svg>
